HIERARCHY
ROOT joint_Root
{
	OFFSET 0.0 0.0 0.0
	CHANNELS 6 Xposition Yposition Zposition Zrotation Xrotation Yrotation 
	JOINT Hips
	{
		OFFSET -0.726466 93.3139 -2.00062
		CHANNELS 6 Xposition Yposition Zposition Zrotation Xrotation Yrotation 
		JOINT Spine
		{
			OFFSET 15.7357 0.0 0.0
			CHANNELS 6 Xposition Yposition Zposition Zrotation Xrotation Yrotation 
			JOINT Chest
			{
				OFFSET 8.98455 -0.406207 0.0
				CHANNELS 6 Xposition Yposition Zposition Zrotation Xrotation Yrotation 
				JOINT Neck
				{
					OFFSET 16.3773 0.0 0.0
					CHANNELS 6 Xposition Yposition Zposition Zrotation Xrotation Yrotation 
					JOINT Head
					{
						OFFSET 6.45672 0.0 0.0
						CHANNELS 6 Xposition Yposition Zposition Zrotation Xrotation Yrotation 
						End Site
						{
							OFFSET 0.0 0.0 0.0
						}
					}
				}
				JOINT Shoulder_L
				{
					OFFSET 12.9942 -0.242716 4.98039
					CHANNELS 6 Xposition Yposition Zposition Zrotation Xrotation Yrotation 
					JOINT UpperArm_L
					{
						OFFSET 5.34809 0.0 0.0
						CHANNELS 6 Xposition Yposition Zposition Zrotation Xrotation Yrotation 
						JOINT LowerArm_L
						{
							OFFSET 24.3286 1.87007e-05 0.0
							CHANNELS 6 Xposition Yposition Zposition Zrotation Xrotation Yrotation 
							JOINT Hand_L
							{
								OFFSET 22.2916 0.0 0.0
								CHANNELS 6 Xposition Yposition Zposition Zrotation Xrotation Yrotation 
								End Site
								{
									OFFSET 0.0 0.0 0.0
								}
							}
						}
					}
				}
				JOINT Shoulder_R
				{
					OFFSET 12.9945 -0.242716 -4.98039
					CHANNELS 6 Xposition Yposition Zposition Zrotation Xrotation Yrotation 
					JOINT UpperArm_R
					{
						OFFSET -5.34813 0.0 0.0
						CHANNELS 6 Xposition Yposition Zposition Zrotation Xrotation Yrotation 
						JOINT LowerArm_R
						{
							OFFSET -24.3289 0.000322201 0.0
							CHANNELS 6 Xposition Yposition Zposition Zrotation Xrotation Yrotation 
							JOINT Hand_R
							{
								OFFSET -22.2915 -0.000108084 0.0
								CHANNELS 6 Xposition Yposition Zposition Zrotation Xrotation Yrotation 
								End Site
								{
									OFFSET 0.0 0.0 0.0
								}
							}
						}
					}
				}
			}
		}
		JOINT UpperLeg_L
		{
			OFFSET -2.19248 -6.46944 0.0
			CHANNELS 6 Xposition Yposition Zposition Zrotation Xrotation Yrotation 
			JOINT LowerLeg_L
			{
				OFFSET 39.0811 0.0 -1.23785e-05
				CHANNELS 6 Xposition Yposition Zposition Zrotation Xrotation Yrotation 
				JOINT Foot_L
				{
					OFFSET 40.9854 0.0 -1.26872e-05
					CHANNELS 6 Xposition Yposition Zposition Zrotation Xrotation Yrotation 
					JOINT Toes_L
					{
						OFFSET 11.7543 0.0 0.0
						CHANNELS 6 Xposition Yposition Zposition Zrotation Xrotation Yrotation 
						End Site
						{
							OFFSET 0.0 0.0 0.0
						}
					}
				}
			}
		}
		JOINT UpperLeg_R
		{
			OFFSET -2.19251 6.46944 0.0
			CHANNELS 6 Xposition Yposition Zposition Zrotation Xrotation Yrotation 
			JOINT LowerLeg_R
			{
				OFFSET -39.0811 -0.00228153 -0.0401928
				CHANNELS 6 Xposition Yposition Zposition Zrotation Xrotation Yrotation 
				JOINT Foot_R
				{
					OFFSET -40.9854 0.0 0.0
					CHANNELS 6 Xposition Yposition Zposition Zrotation Xrotation Yrotation 
					JOINT Toes_R
					{
						OFFSET -11.7543 0.0 0.0
						CHANNELS 6 Xposition Yposition Zposition Zrotation Xrotation Yrotation 
						End Site
						{
							OFFSET 0.0 0.0 0.0
						}
					}
				}
			}
		}
	}
}
MOTION
Frames:	4
Frame Time:	0.0333333
0.000000 0.000000 0.000000 0.000000 0.000000 -0.000000 83.544800 88.121800 191.615000 -84.368800 42.099800 179.582000 15.735700 0.000005 -0.000001 69.060700 81.794300 -67.402700 8.984550 -0.406207 -0.000000 7.678780 -5.843230 3.707320 16.377300 -0.000001 -0.000001 6.515030 7.963990 -1.509310 6.456720 -0.000001 -0.000000 -2.146340 20.068900 4.403060 12.994200 -0.242716 4.980390 -88.009300 -5.707760 -70.735700 5.348090 -0.000007 -0.000001 -54.136800 34.332000 -33.295300 24.328600 0.000019 0.000005 9.977070 4.331100 -66.766100 22.291600 -0.000001 0.000005 8.289200 5.574080 -9.899050 12.994500 -0.242716 -4.980390 88.227600 3.450640 -62.791600 -5.348130 -0.000001 -0.000004 -60.447600 26.076500 6.694110 -24.328900 0.000322 -0.000009 3.777840 5.713350 -33.563500 -22.291500 -0.000108 -0.000004 0.631538 5.543360 -8.396410 -2.192480 -6.469440 -0.000000 -179.283000 11.111300 4.651070 39.081100 -0.000007 -0.000012 0.004338 -0.006933 32.028800 40.985400 -0.000006 -0.000013 10.586600 -0.232640 -82.722400 11.754300 -0.000000 0.000003 -1.325860 -1.687390 -16.207400 -2.192510 6.469440 -0.000001 171.502000 12.843800 161.933000 -39.081100 -0.002282 -0.040193 -0.015325 0.103746 10.198000 -40.985400 0.000008 0.000006 -5.755110 3.556960 -62.960800 -11.754300 -0.000006 -0.000006 -0.024522 -0.191157 -24.392700
0.000000 0.000000 0.000000 0.000000 0.000000 -0.000000 87.469200 87.589200 190.827000 -83.583100 39.202400 179.310000 15.735700 0.000005 -0.000001 69.936500 81.660800 -67.927200 8.984550 -0.406207 -0.000000 8.033410 -5.692690 4.417270 16.377300 -0.000001 -0.000001 6.691750 7.899830 -1.164880 6.456720 -0.000001 -0.000000 -2.655810 19.682400 4.705410 12.994200 -0.242716 4.980390 -88.163400 -5.289380 -70.820600 5.348090 -0.000007 -0.000001 -55.544200 33.975000 -30.794300 24.328600 0.000019 0.000005 9.937690 4.451700 -66.105900 22.291600 -0.000001 0.000005 8.282870 5.566840 -9.527440 12.994500 -0.242716 -4.980390 87.957000 4.016740 -63.012700 -5.348130 -0.000001 -0.000004 -59.760200 26.385800 5.090050 -24.328900 0.000322 -0.000009 4.105480 6.388740 -32.831100 -22.291500 -0.000108 -0.000004 0.972075 5.541130 -8.293980 -2.192480 -6.469440 -0.000000 -176.848000 12.863100 6.423180 39.081100 -0.000007 -0.000012 0.008520 -0.013363 32.519000 40.985400 -0.000006 -0.000013 9.563750 1.210870 -83.038600 11.754300 -0.000000 0.000003 -2.033060 -2.504750 -18.210100 -2.192510 6.469440 -0.000001 171.173000 11.295000 160.514000 -39.081100 -0.002282 -0.040193 -0.110166 0.409551 15.489300 -40.985400 0.000008 0.000006 -12.260000 3.155030 -58.881700 -11.754300 -0.000006 -0.000006 -0.029317 -0.214316 -25.351400
0.000000 0.000000 0.000000 0.000000 0.000000 -0.000000 91.664300 87.121900 189.926000 -82.507900 36.170600 178.896000 15.735700 0.000005 -0.000001 70.818700 81.637900 -68.456400 8.984550 -0.406207 -0.000000 8.175080 -5.462370 5.113460 16.377300 -0.000001 -0.000001 7.054370 7.725460 -0.877551 6.456720 -0.000001 -0.000000 -3.117600 19.272500 5.283790 12.994200 -0.242716 4.980390 -88.360100 -4.729730 -70.852000 5.348090 -0.000007 -0.000001 -56.376700 33.992500 -27.894500 24.328600 0.000019 0.000005 9.960100 4.704150 -64.967100 22.291600 -0.000001 0.000005 7.991310 5.566750 -9.523200 12.994500 -0.242716 -4.980390 87.500800 4.948050 -63.159100 -5.348130 -0.000001 -0.000004 -59.162300 26.312400 3.522470 -24.328900 0.000322 -0.000009 4.628170 7.283830 -32.564600 -22.291500 -0.000108 -0.000004 1.129060 5.538950 -8.194760 -2.192480 -6.469440 -0.000000 -173.749000 14.100700 7.258000 39.081100 -0.000007 -0.000012 -0.001526 0.002257 34.089500 40.985400 -0.000006 -0.000013 9.107390 3.048120 -81.333500 11.754300 -0.000000 0.000003 -3.313910 -3.700630 -22.318800 -2.192510 6.469440 -0.000001 172.248000 9.416250 157.946000 -39.081100 -0.002282 -0.040193 -0.148845 0.342635 23.945500 -40.985400 0.000008 0.000006 -12.661900 4.129220 -54.209600 -11.754300 -0.000006 -0.000006 -0.044349 -0.277001 -27.965000
0.000000 0.000000 0.000000 0.000000 0.000000 -0.000000 95.857200 86.763200 188.833000 -81.817700 33.365700 179.104000 15.735700 0.000005 -0.000001 72.703400 81.605600 -70.056300 8.984550 -0.406207 -0.000000 8.407520 -4.953780 5.656390 16.377300 -0.000001 -0.000001 7.055390 7.587950 -0.682287 6.456720 -0.000001 -0.000000 -3.088260 18.710400 5.476620 12.994200 -0.242716 4.980390 -88.578500 -4.069990 -70.728500 5.348090 -0.000007 -0.000001 -56.944300 34.613400 -24.832500 24.328600 0.000019 0.000005 10.100400 5.175670 -63.141600 22.291600 -0.000001 0.000005 7.832290 5.566140 -9.492300 12.994500 -0.242716 -4.980390 87.174800 5.639220 -63.333500 -5.348130 -0.000001 -0.000004 -59.006700 25.792500 1.890140 -24.328900 0.000322 -0.000009 4.597350 7.222210 -32.609900 -22.291500 -0.000108 -0.000004 1.457280 5.539580 -8.223530 -2.192480 -6.469440 -0.000000 -170.957000 14.668800 6.847510 39.081100 -0.000007 -0.000012 0.006543 -0.008282 38.300800 40.985400 -0.000006 -0.000013 9.295440 4.298910 -78.865900 11.754300 -0.000000 0.000003 -0.034143 -0.235874 -26.250900 -2.192510 6.469440 -0.000001 174.041000 10.907200 157.184000 -39.081100 -0.002282 -0.040193 -0.077240 0.138518 30.175900 -40.985400 0.000008 0.000006 -10.954100 3.106130 -52.523100 -11.754300 -0.000006 -0.000006 -0.034452 -0.237187 -26.301700
